<svg xmlns="http://www.w3.org/2000/svg" viewBox="0 0 256 256" role="img" aria-label="Игра 1 из 2">
  <defs>
    <linearGradient id="sky" x1="28" y1="22" x2="226" y2="238" gradientUnits="userSpaceOnUse">
      <stop stop-color="#EEF2FF"/>
      <stop offset="0.55" stop-color="#F5F3FF"/>
      <stop offset="1" stop-color="#FCE7F3"/>
    </linearGradient>
    <linearGradient id="tileGood" x1="42" y1="114" x2="116" y2="200" gradientUnits="userSpaceOnUse">
      <stop stop-color="#6366F1"/>
      <stop offset="1" stop-color="#8B5CF6"/>
    </linearGradient>
    <linearGradient id="tileBad" x1="140" y1="114" x2="214" y2="200" gradientUnits="userSpaceOnUse">
      <stop stop-color="#EC4899"/>
      <stop offset="1" stop-color="#FB923C"/>
    </linearGradient>
    <filter id="softShadow" x="-20%" y="-20%" width="140%" height="150%">
      <feDropShadow dx="0" dy="10" stdDeviation="7" flood-color="#312E81" flood-opacity="0.18"/>
    </filter>
  </defs>
  <rect width="256" height="256" rx="58" fill="url(#sky)"/>
  <circle cx="48" cy="47" r="11" fill="#C7D2FE" opacity="0.8"/>
  <circle cx="213" cy="45" r="14" fill="#FBCFE8" opacity="0.8"/>
  <circle cx="224" cy="204" r="10" fill="#FED7AA" opacity="0.9"/>
  <g filter="url(#softShadow)">
    <rect x="50" y="35" width="156" height="66" rx="24" fill="#FFFFFF"/>
    <text x="128" y="64" text-anchor="middle" font-family="Inter, Arial, sans-serif" font-size="14" font-weight="900" fill="#818CF8">перевод</text>
    <text x="128" y="88" text-anchor="middle" font-family="Inter, Arial, sans-serif" font-size="25" font-weight="900" fill="#312E81">высокий</text>
  </g>
  <g filter="url(#softShadow)">
    <rect x="33" y="120" width="86" height="76" rx="26" fill="url(#tileGood)"/>
    <rect x="44" y="133" width="64" height="16" rx="8" fill="#FFFFFF" opacity="0.2"/>
    <text x="76" y="172" text-anchor="middle" font-family="Inter, Arial, sans-serif" font-size="24" font-weight="900" fill="#FFFFFF">TALL</text>
  </g>
  <g filter="url(#softShadow)">
    <rect x="137" y="120" width="86" height="76" rx="26" fill="url(#tileBad)"/>
    <rect x="148" y="133" width="64" height="16" rx="8" fill="#FFFFFF" opacity="0.2"/>
    <text x="180" y="172" text-anchor="middle" font-family="Inter, Arial, sans-serif" font-size="24" font-weight="900" fill="#FFFFFF">TOLL</text>
  </g>
  <circle cx="128" cy="158" r="20" fill="#FFFFFF" filter="url(#softShadow)"/>
  <text x="128" y="166" text-anchor="middle" font-family="Inter, Arial, sans-serif" font-size="26" font-weight="900" fill="#4F46E5">?</text>
  <path d="M59 213h138" stroke="#312E81" stroke-width="11" stroke-linecap="round" opacity="0.13"/>
</svg>
