<svg width="900" height="620" viewBox="0 0 900 620" fill="none" xmlns="http://www.w3.org/2000/svg">
  <defs>
    <linearGradient id="sky" x1="80" y1="45" x2="820" y2="575" gradientUnits="userSpaceOnUse"><stop stop-color="#EAF3FF"/><stop offset=".52" stop-color="#F5EEFF"/><stop offset="1" stop-color="#FFF6E7"/></linearGradient>
    <linearGradient id="card" x1="250" y1="104" x2="700" y2="520" gradientUnits="userSpaceOnUse"><stop stop-color="#FFFFFF"/><stop offset="1" stop-color="#F8FAFF"/></linearGradient>
    <linearGradient id="shirt" x1="358" y1="270" x2="545" y2="588" gradientUnits="userSpaceOnUse"><stop stop-color="#2F7CF6"/><stop offset="1" stop-color="#163EBC"/></linearGradient>
    <linearGradient id="pet" x1="594" y1="335" x2="736" y2="530" gradientUnits="userSpaceOnUse"><stop stop-color="#FFB743"/><stop offset="1" stop-color="#F47C21"/></linearGradient>
    <filter id="soft" x="-20%" y="-20%" width="140%" height="140%"><feDropShadow dx="0" dy="24" stdDeviation="22" flood-color="#1E3A8A" flood-opacity=".16"/></filter>
    <filter id="tiny" x="-20%" y="-20%" width="140%" height="140%"><feDropShadow dx="0" dy="10" stdDeviation="10" flood-color="#1E293B" flood-opacity=".12"/></filter>
  </defs>
  <rect x="18" y="18" width="864" height="584" rx="54" fill="url(#sky)"/>
  <circle cx="132" cy="122" r="58" fill="#DBEAFE" opacity=".55"/>
  <circle cx="748" cy="126" r="78" fill="#FFE4E6" opacity=".65"/>
  <circle cx="118" cy="490" r="96" fill="#E0E7FF" opacity=".62"/>
  <path d="M75 315C129 262 190 258 246 303" stroke="#C7D2FE" stroke-width="20" stroke-linecap="round" opacity=".45"/>
  <path d="M658 498C712 449 784 456 829 516" stroke="#FED7AA" stroke-width="20" stroke-linecap="round" opacity=".7"/>

  <g filter="url(#soft)">
    <rect x="86" y="118" width="286" height="246" rx="34" fill="url(#card)"/>
    <text x="119" y="166" fill="#0F172A" font-family="Inter,Arial" font-size="26" font-weight="900">Сегодняшняя</text>
    <text x="119" y="198" fill="#0F172A" font-family="Inter,Arial" font-size="26" font-weight="900">тренировка</text>
    <rect x="119" y="226" width="203" height="18" rx="9" fill="#DBEAFE"/>
    <rect x="119" y="226" width="142" height="18" rx="9" fill="#2563EB"/>
    <g font-family="Inter,Arial" font-size="35" font-weight="900" fill="#10172A">
      <rect x="118" y="270" width="48" height="48" rx="14" fill="#EFF6FF"/><text x="132" y="307">L</text>
      <rect x="176" y="270" width="48" height="48" rx="14" fill="#EFF6FF"/><text x="191" y="307">I</text>
      <rect x="234" y="270" width="48" height="48" rx="14" fill="#EFF6FF"/><text x="247" y="307">G</text>
      <rect x="292" y="270" width="48" height="48" rx="14" fill="#EFF6FF"/><text x="306" y="307">H</text>
    </g>
    <text x="119" y="344" fill="#64748B" font-family="Inter,Arial" font-size="17" font-weight="800">+10 XP · слово закреплено</text>
  </g>

  <g filter="url(#tiny)">
    <rect x="610" y="92" width="190" height="112" rx="28" fill="white"/>
    <text x="640" y="132" fill="#64748B" font-family="Inter,Arial" font-size="18" font-weight="900">Streak</text>
    <text x="640" y="174" fill="#0F172A" font-family="Inter,Arial" font-size="36" font-weight="900">12 дней 🔥</text>
  </g>
  <g filter="url(#tiny)">
    <rect x="642" y="222" width="168" height="116" rx="28" fill="white"/>
    <text x="671" y="260" fill="#64748B" font-family="Inter,Arial" font-size="17" font-weight="900">Daily quest</text>
    <rect x="671" y="279" width="96" height="12" rx="6" fill="#FED7AA"/>
    <rect x="671" y="279" width="64" height="12" rx="6" fill="#F59E0B"/>
    <text x="671" y="322" fill="#0F172A" font-family="Inter,Arial" font-size="27" font-weight="900">3 / 5</text>
  </g>

  <g filter="url(#soft)">
    <path d="M442 273c73 0 130 64 130 159v104H312V432c0-95 57-159 130-159z" fill="url(#shirt)"/>
    <path d="M358 320c-56 36-78 86-68 152" stroke="#1D4ED8" stroke-width="34" stroke-linecap="round"/>
    <path d="M526 319c58 34 87 81 91 151" stroke="#1D4ED8" stroke-width="34" stroke-linecap="round"/>
    <circle cx="442" cy="205" r="82" fill="#F8CBA3"/>
    <path d="M349 201c8-80 65-123 146-105 54 12 78 53 65 108-47-32-95-49-167-39-7 19-21 31-44 36z" fill="#7C2D12"/>
    <path d="M377 198c16-6 32-6 45 1" stroke="#7C2D12" stroke-width="7" stroke-linecap="round"/>
    <path d="M462 199c16-7 32-7 46 1" stroke="#7C2D12" stroke-width="7" stroke-linecap="round"/>
    <circle cx="402" cy="222" r="9" fill="#111827"/>
    <circle cx="485" cy="222" r="9" fill="#111827"/>
    <path d="M420 257c17 15 44 15 61 0" stroke="#7C2D12" stroke-width="8" stroke-linecap="round"/>
    <path d="M613 471c25-2 42-19 46-47" stroke="#F8CBA3" stroke-width="30" stroke-linecap="round"/>
    <path d="M657 425c1-31-13-49-36-61" stroke="#F8CBA3" stroke-width="21" stroke-linecap="round"/>
  </g>

  <g filter="url(#soft)">
    <ellipse cx="674" cy="533" rx="102" ry="25" fill="#1E293B" opacity=".08"/>
    <path d="M596 406c0-71 154-71 154 0v66c0 84-154 84-154 0v-66z" fill="url(#pet)"/>
    <path d="M600 395l-38-48 15 90" fill="#F59E0B"/>
    <path d="M747 395l40-48-16 90" fill="#F59E0B"/>
    <path d="M586 380c19 4 33 15 43 33" stroke="#FFE7C2" stroke-width="18" stroke-linecap="round"/>
    <path d="M762 380c-20 5-35 16-45 33" stroke="#FFE7C2" stroke-width="18" stroke-linecap="round"/>
    <circle cx="643" cy="445" r="10" fill="#111827"/>
    <circle cx="704" cy="445" r="10" fill="#111827"/>
    <circle cx="640" cy="441" r="3" fill="white"/>
    <circle cx="701" cy="441" r="3" fill="white"/>
    <circle cx="674" cy="465" r="10" fill="#7C2D12"/>
    <path d="M654 486c13 14 29 14 42 0" stroke="#7C2D12" stroke-width="7" stroke-linecap="round"/>
    <circle cx="610" cy="471" r="14" fill="#FDBA74" opacity=".7"/>
    <circle cx="738" cy="471" r="14" fill="#FDBA74" opacity=".7"/>
    <rect x="622" y="517" width="108" height="15" rx="8" fill="#DBEAFE"/>
    <rect x="622" y="517" width="82" height="15" rx="8" fill="#22C55E"/>
  </g>

  <g filter="url(#tiny)">
    <rect x="222" y="426" width="264" height="108" rx="30" fill="white"/>
    <text x="252" y="465" fill="#64748B" font-family="Inter,Arial" font-size="17" font-weight="900">Игры тренируют слово</text>
    <g font-family="Inter,Arial" font-size="14" font-weight="900" fill="#1E3A8A">
      <rect x="252" y="484" width="44" height="34" rx="12" fill="#EFF6FF"/><text x="263" y="506">Aa</text>
      <rect x="305" y="484" width="44" height="34" rx="12" fill="#F0FDF4"/><text x="318" y="506">✓</text>
      <rect x="358" y="484" width="44" height="34" rx="12" fill="#FFF7ED"/><text x="371" y="506">⚡</text>
      <rect x="411" y="484" width="44" height="34" rx="12" fill="#F5F3FF"/><text x="424" y="506">▦</text>
    </g>
  </g>
</svg>
