<svg xmlns="http://www.w3.org/2000/svg" viewBox="0 0 512 512" role="img" aria-label="Puppy glasses accessory">
  <defs>
    <linearGradient id="gold" x1="86" y1="118" x2="426" y2="394" gradientUnits="userSpaceOnUse"><stop stop-color="#fff0a9"/><stop offset="0.25" stop-color="#f7c23b"/><stop offset="0.62" stop-color="#b66f11"/><stop offset="1" stop-color="#fff0a9"/></linearGradient>
    <linearGradient id="lens" x1="120" y1="138" x2="390" y2="332" gradientUnits="userSpaceOnUse"><stop stop-color="#ffffff" stop-opacity="0.7"/><stop offset="0.46" stop-color="#dff6ff" stop-opacity="0.26"/><stop offset="1" stop-color="#ffffff" stop-opacity="0.1"/></linearGradient>
    <filter id="shadow" x="-20%" y="-20%" width="140%" height="140%"><feDropShadow dx="0" dy="10" stdDeviation="14" flood-color="#4b2a04" flood-opacity="0.16"/></filter>
  </defs>
  <g filter="url(#shadow)" fill="none" stroke-linecap="round" stroke-linejoin="round">
    <circle cx="162" cy="248" r="88" fill="url(#lens)" stroke="url(#gold)" stroke-width="18"/>
    <circle cx="350" cy="248" r="88" fill="url(#lens)" stroke="url(#gold)" stroke-width="18"/>
    <path d="M249 245c7-10 18-15 31 0" stroke="url(#gold)" stroke-width="18"/>
    <path d="M74 236 36 220M438 236l38-16" stroke="url(#gold)" stroke-width="16"/>
    <path d="M67 266c-36 30-38 73-7 96M445 266c36 30 38 73 7 96" stroke="#7b431d" stroke-width="15"/>
    <path d="M112 202c28-34 70-45 106-30M300 202c28-34 70-45 106-30" stroke="#fff5ca" stroke-opacity="0.75" stroke-width="8"/>
    <path d="M118 218c32-23 68-29 102-16M306 218c32-23 68-29 102-16" stroke="#ffffff" stroke-opacity="0.65" stroke-width="10"/>
    <ellipse cx="240" cy="270" rx="9" ry="22" fill="#fff4dc" stroke="none" opacity="0.9"/>
    <ellipse cx="272" cy="270" rx="9" ry="22" fill="#fff4dc" stroke="none" opacity="0.9"/>
  </g>
</svg>
