<svg xmlns="http://www.w3.org/2000/svg" viewBox="0 0 512 512" role="img" aria-label="Puppy hero cape accessory">
  <defs>
    <linearGradient id="cape" x1="92" y1="72" x2="424" y2="450" gradientUnits="userSpaceOnUse"><stop stop-color="#3aa2ff"/><stop offset="0.42" stop-color="#155ee4"/><stop offset="1" stop-color="#0b2b86"/></linearGradient>
    <linearGradient id="inside" x1="256" y1="128" x2="256" y2="444" gradientUnits="userSpaceOnUse"><stop stop-color="#062075"/><stop offset="1" stop-color="#031344"/></linearGradient>
    <radialGradient id="gem" cx="0" cy="0" r="1" gradientUnits="userSpaceOnUse" gradientTransform="translate(260 144) rotate(72) scale(38)"><stop stop-color="#dfffff"/><stop offset="0.42" stop-color="#26ccff"/><stop offset="1" stop-color="#0660c9"/></radialGradient>
    <filter id="shadow" x="-20%" y="-20%" width="140%" height="140%"><feDropShadow dx="0" dy="14" stdDeviation="18" flood-color="#08245b" flood-opacity="0.2"/></filter>
  </defs>
  <g filter="url(#shadow)">
    <path d="M128 112c42 33 214 33 256 0 13 41 5 86-9 124l69 157c16 37-22 72-56 49-34-23-57-32-94-7-24 16-53 18-78 0-35-25-61-13-94 8-36 23-72-15-54-51l69-150c-17-51-24-93-9-130z" fill="url(#cape)"/>
    <path d="M256 156c-43 58-63 161-55 274 38-24 74-24 110 0 9-115-11-216-55-274z" fill="url(#inside)" opacity="0.88"/>
    <path d="M137 117c28 35 207 44 238 0 11 24 10 46-2 67-44 30-190 30-235 0-12-22-13-43-1-67z" fill="#318bff"/>
    <path d="M139 210c36 28 74 103 56 212M373 210c-36 28-74 103-56 212" fill="none" stroke="#6db8ff" stroke-opacity="0.5" stroke-width="11" stroke-linecap="round"/>
    <circle cx="256" cy="143" r="34" fill="#e0a42d"/>
    <circle cx="256" cy="143" r="23" fill="url(#gem)"/>
    <path d="M158 133c41 23 155 26 196 2" stroke="#99d6ff" stroke-width="10" stroke-linecap="round" opacity="0.5"/>
  </g>
</svg>
