<svg xmlns="http://www.w3.org/2000/svg" viewBox="0 0 512 512" role="img" aria-label="Puppy star collar accessory">
  <defs>
    <linearGradient id="pink" x1="96" y1="158" x2="416" y2="300" gradientUnits="userSpaceOnUse"><stop stop-color="#ffb6d0"/><stop offset="0.5" stop-color="#ff6fa7"/><stop offset="1" stop-color="#d84282"/></linearGradient>
    <linearGradient id="gold" x1="190" y1="160" x2="330" y2="430" gradientUnits="userSpaceOnUse"><stop stop-color="#fff0a6"/><stop offset="0.35" stop-color="#ffc531"/><stop offset="0.7" stop-color="#c57a0c"/><stop offset="1" stop-color="#fff1aa"/></linearGradient>
    <filter id="shadow" x="-20%" y="-20%" width="140%" height="140%"><feDropShadow dx="0" dy="13" stdDeviation="16" flood-color="#662949" flood-opacity="0.18"/></filter>
  </defs>
  <g filter="url(#shadow)">
    <path d="M86 220c13-68 78-103 170-103s157 35 170 103c6 33-10 63-45 76-65 24-185 24-250 0-35-13-51-43-45-76z" fill="url(#pink)"/>
    <path d="M93 228c44 38 281 38 326 0 0 35-20 59-56 70-64 19-151 19-215 0-36-11-55-35-55-70z" fill="#e85e98"/>
    <path d="M118 211c52 29 225 31 278 0" fill="none" stroke="#ffd2e1" stroke-width="12" stroke-linecap="round" opacity="0.7"/>
    <path d="M148 258c70 22 145 22 216 0" fill="none" stroke="#b93573" stroke-width="8" stroke-linecap="round" opacity="0.32"/>
    <circle cx="256" cy="304" r="28" fill="url(#gold)"/>
    <circle cx="256" cy="346" r="16" fill="url(#gold)"/>
    <path d="m256 358 22 45 50 7-36 35 9 49-45-23-45 23 9-49-36-35 50-7z" fill="url(#gold)" stroke="#a96805" stroke-width="8" stroke-linejoin="round"/>
    <path d="M151 214h70M291 214h70" stroke="#f7a4c4" stroke-width="10" stroke-linecap="round"/>
    <circle cx="142" cy="236" r="8" fill="#c03473" opacity="0.5"/><circle cx="370" cy="236" r="8" fill="#c03473" opacity="0.5"/>
  </g>
</svg>
