<svg xmlns="http://www.w3.org/2000/svg" viewBox="0 0 128 128" role="img" aria-label="AnnWord">
  <path fill="#57B84D" d="M18 24c0-9.94 8.06-18 18-18h58c9.94 0 18 8.06 18 18v72c0 9.94-8.06 18-18 18H36c-9.94 0-18-8.06-18-18V24Z"/>
  <path fill="#FBF9F3" d="M14 20c0-9.94 8.06-18 18-18h58c9.94 0 18 8.06 18 18v68c0 9.94-8.06 18-18 18H32c-9.94 0-18-8.06-18-18V20Z"/>
  <path fill="#57B84D" d="M88 2h2c9.94 0 18 8.06 18 18v17L73 2h15Z"/>
  <path fill="#121821" d="M72.79 25H55.21L29 84.75h15.63l4.44-11.56h29.86l4.44 11.56H99L72.79 25Zm-9.12 12.37 10.42 24.38H53.91l9.76-24.38Z"/>
</svg>
