<svg xmlns="http://www.w3.org/2000/svg" viewBox="0 0 1920 1080"><defs><linearGradient id="sky" y2="1"><stop stop-color="#79d5ef"/><stop offset="1" stop-color="#fff2c4"/></linearGradient><linearGradient id="grass" y2="1"><stop stop-color="#76c96d"/><stop offset="1" stop-color="#3f9555"/></linearGradient></defs><rect width="1920" height="1080" fill="url(#sky)"/><circle cx="1580" cy="150" r="80" fill="#ffe18a"/><g fill="#fff" opacity=".85"><ellipse cx="330" cy="180" rx="140" ry="38"/><ellipse cx="470" cy="210" rx="120" ry="32"/><ellipse cx="1270" cy="260" rx="170" ry="42"/></g><rect y="700" width="1920" height="380" fill="url(#grass)"/><g stroke="#ec5d48" stroke-width="20" fill="none"><circle cx="520" cy="430" r="235"/><path d="M520 195v470M285 430h470M354 264l332 332M686 264L354 596"/></g><g fill="#f7c34a"><circle cx="520" cy="195" r="23"/><circle cx="755" cy="430" r="23"/><circle cx="520" cy="665" r="23"/><circle cx="285" cy="430" r="23"/></g><path d="M940 700h590l-75-260H1015z" fill="#f45c62"/><path d="M1000 440h470v75h-470z" fill="#ffe17e"/><path d="M1060 515v185M1410 515v185" stroke="#fff" stroke-width="18"/><path d="M820 775c165-76 410-58 624 0" fill="none" stroke="#eac37a" stroke-width="32" stroke-linecap="round"/></svg>