<svg xmlns="http://www.w3.org/2000/svg" viewBox="0 0 1920 1080"><defs><linearGradient id="night" y2="1"><stop stop-color="#0e2460"/><stop offset=".58" stop-color="#304fa1"/><stop offset="1" stop-color="#e1f4ff"/></linearGradient><linearGradient id="ice" y2="1"><stop stop-color="#d9f8ff"/><stop offset="1" stop-color="#91d7f2"/></linearGradient></defs><rect width="1920" height="1080" fill="url(#night)"/><g fill="#fff"><circle cx="180" cy="140" r="5"/><circle cx="320" cy="95" r="6"/><circle cx="620" cy="180" r="5"/><circle cx="1000" cy="98" r="7"/><circle cx="1410" cy="165" r="6"/><circle cx="1700" cy="92" r="5"/></g><path d="M0 505l220-170 220 160 225-230 245 225 245-205 250 225 235-160v325H0z" fill="#dbeeff" opacity=".7"/><g stroke="#f6d36a" stroke-width="10" fill="none"><path d="M80 285Q960 430 1840 270"/><path d="M130 235Q960 360 1780 220"/></g><g fill="#ffd85d"><circle cx="310" cy="295" r="12"/><circle cx="575" cy="330" r="12"/><circle cx="850" cy="350" r="12"/><circle cx="1130" cy="340" r="12"/><circle cx="1415" cy="310" r="12"/><circle cx="1620" cy="285" r="12"/></g><ellipse cx="960" cy="807" rx="710" ry="240" fill="url(#ice)" stroke="#fff" stroke-width="22"/><ellipse cx="960" cy="807" rx="570" ry="176" fill="none" stroke="#bbebfb" stroke-width="12"/><path d="M420 930h1080" stroke="#d9b27a" stroke-width="38" stroke-linecap="round"/></svg>