<svg xmlns="http://www.w3.org/2000/svg" viewBox="0 0 1920 1080"><rect width="1920" height="1080" fill="#301728"/><ellipse cx="960" cy="120" rx="390" ry="210" fill="#62432d"/><circle cx="960" cy="130" r="52" fill="#ffd88d"/><path fill="#dcad62" d="M300 80h70v810h-70zm1250 0h70v810h-70zM250 75h170v35H250zm1250 0h170v35h-170z"/><path fill="#9c4c35" d="M0 420h300v65H0zm1620 0h300v65h-300zM0 635h300v65H0zm1620 0h300v65h-300z"/><path fill="#7d2f2d" d="M360 1080V930q600-240 1200 0v150z"/><path fill="#c55742" d="M480 1030v-95q70-65 140 0v95zm190-35v-105q70-65 140 0v105zm190-35v-115q70-65 140 0v115zm190 35v-105q70-65 140 0v105zm190 35v-95q70-65 140 0v95z"/></svg>