<svg xmlns="http://www.w3.org/2000/svg" viewBox="0 0 1920 1080"><defs><linearGradient id="room" y2="1"><stop stop-color="#d7f2eb"/><stop offset="1" stop-color="#ffe8c4"/></linearGradient><linearGradient id="inside" y2="1"><stop stop-color="#eafaff"/><stop offset="1" stop-color="#b6e7ef"/></linearGradient></defs><rect width="1920" height="1080" fill="url(#room)"/><rect y="815" width="1920" height="265" fill="#d79c64"/><path d="M0 830h1920M0 920h1920M0 1010h1920" stroke="#bf8251" stroke-width="12"/><rect x="490" y="110" width="940" height="720" rx="42" fill="#f5f7f7" stroke="#d7dedf" stroke-width="18"/><rect x="575" y="180" width="770" height="585" rx="28" fill="url(#inside)"/><path d="M575 372h770M575 560h770" stroke="#fff" stroke-width="18"/><g fill="#d66a4d" stroke="#ab463a" stroke-width="8"><rect x="675" y="288" width="170" height="55" rx="27"/><rect x="882" y="280" width="190" height="60" rx="30"/><rect x="1085" y="294" width="150" height="52" rx="26"/><rect x="645" y="465" width="196" height="58" rx="29"/><rect x="870" y="470" width="178" height="56" rx="28"/><rect x="1077" y="456" width="210" height="62" rx="31"/><rect x="700" y="650" width="205" height="62" rx="31"/><rect x="950" y="642" width="240" height="68" rx="34"/></g><path d="M515 140v665M1405 140v665" stroke="#d9dfdf" stroke-width="10"/><circle cx="545" cy="470" r="16" fill="#98a8a9"/><circle cx="1375" cy="470" r="16" fill="#98a8a9"/></svg>