<svg xmlns="http://www.w3.org/2000/svg" viewBox="0 0 1920 1080"><defs><linearGradient id="bg" y2="1"><stop stop-color="#271640"/><stop offset="1" stop-color="#722f3e"/></linearGradient><radialGradient id="light"><stop stop-color="#ffd989" stop-opacity=".85"/><stop offset="1" stop-color="#ffd989" stop-opacity="0"/></radialGradient></defs><rect width="1920" height="1080" fill="url(#bg)"/><ellipse cx="960" cy="170" rx="420" ry="240" fill="url(#light)"/><path fill="#9d2339" d="M0 0h270v760L120 895 0 850zm1920 0h-270v760l150 135 120-45z"/><path fill="#d23849" d="M0 0h190v820l-72 72L0 850zm1920 0h-190v820l72 72 118-42z"/><path d="M290 690h1340v38H290z" fill="#dfa64f"/><path d="M250 728h1420v235H250z" fill="#5a242b"/><path d="M310 758h1300v142H310z" fill="#c57645"/><circle cx="960" cy="138" r="46" fill="#ffd37a"/><g fill="#f4c35f"><circle cx="875" cy="205" r="10"/><circle cx="920" cy="217" r="10"/><circle cx="1000" cy="217" r="10"/><circle cx="1045" cy="205" r="10"/></g></svg>