<svg width="256" height="256" viewBox="0 0 256 256" fill="none" xmlns="http://www.w3.org/2000/svg" role="img" aria-label="AnnWord Practice">
  <rect width="256" height="256" rx="56" fill="#EEF2FF"/>
  <circle cx="190" cy="58" r="28" fill="#C7D2FE"/>
  <circle cx="55" cy="194" r="34" fill="#DBEAFE"/>
  <rect x="47" y="69" width="162" height="106" rx="22" fill="white" stroke="#4F46E5" stroke-width="8"/>
  <rect x="70" y="93" width="116" height="12" rx="6" fill="#A5B4FC"/>
  <rect x="70" y="119" width="72" height="12" rx="6" fill="#C4B5FD"/>
  <rect x="70" y="145" width="96" height="12" rx="6" fill="#BFDBFE"/>
  <path d="M81 182H175L190 207H66L81 182Z" fill="#312E81"/>
  <rect x="54" y="207" width="148" height="14" rx="7" fill="#4338CA"/>
  <circle cx="91" cy="54" r="22" fill="#22C55E"/>
  <path d="M82 57L90 65L103 43" stroke="white" stroke-width="8" stroke-linecap="round" stroke-linejoin="round"/>
  <rect x="152" y="38" width="46" height="46" rx="16" fill="#FDE68A" stroke="white" stroke-width="5"/>
  <path d="M162 68L174 45H180L192 68H185L183 63H171L169 68H162ZM173 57H181L177 49L173 57Z" fill="#312E81"/>
  <rect x="33" y="116" width="42" height="42" rx="15" fill="#FBCFE8" stroke="white" stroke-width="5"/>
  <path d="M46 144V128H54C58 128 61 130 61 134C61 137 59 139 56 140L62 144H55L50 140V144H46ZM50 136H54C56 136 57 135 57 134C57 132 56 132 54 132H50V136Z" fill="#831843"/>
</svg>
