<svg width="256" height="256" viewBox="0 0 256 256" fill="none" xmlns="http://www.w3.org/2000/svg" role="img" aria-label="AnnWord Practice dog">
  <rect width="256" height="256" rx="56" fill="#EEF2FF"/>
  <ellipse cx="128" cy="188" rx="78" ry="18" fill="#CBD5E1" opacity="0.45"/>
  <rect x="42" y="151" width="92" height="58" rx="10" fill="#1D4ED8"/>
  <path d="M54 178H128L149 209H35L54 178Z" fill="#1E40AF"/>
  <rect x="32" y="209" width="128" height="13" rx="7" fill="#312E81"/>
  <path d="M82 170c11-27 32-44 58-44s46 18 56 45c5 14-6 31-21 31H103c-15 0-26-17-21-32Z" fill="#F6B35E"/>
  <path d="M115 131c-16 5-28 18-34 37l35-11 19-29c-6 0-13 1-20 3Z" fill="#C96F28" opacity="0.5"/>
  <path d="M163 131c16 5 28 18 34 37l-35-11-19-29c6 0 13 1 20 3Z" fill="#C96F28" opacity="0.45"/>
  <circle cx="128" cy="104" r="54" fill="#F7BE68"/>
  <path d="M112 54c-20-17-47-10-57 10-7 14 1 34 17 41 14 6 34-4 41-25l-1-26Z" fill="#C56F2D"/>
  <path d="M144 54c20-17 47-10 57 10 7 14-1 34-17 41-14 6-34-4-41-25l1-26Z" fill="#C56F2D"/>
  <path d="M119 51c-10 19-16 43-16 70 0 18 9 33 25 33s25-15 25-33c0-27-8-51-18-70-5-8-11-8-16 0Z" fill="#FFF7ED"/>
  <ellipse cx="103" cy="104" rx="17" ry="23" fill="white" transform="rotate(-10 103 104)"/>
  <ellipse cx="153" cy="104" rx="17" ry="23" fill="white" transform="rotate(10 153 104)"/>
  <circle cx="107" cy="109" r="9" fill="#0EA5E9"/>
  <circle cx="149" cy="109" r="9" fill="#0EA5E9"/>
  <circle cx="110" cy="112" r="5" fill="#111827"/>
  <circle cx="146" cy="112" r="5" fill="#111827"/>
  <circle cx="113" cy="107" r="2" fill="white"/>
  <circle cx="149" cy="107" r="2" fill="white"/>
  <ellipse cx="128" cy="130" rx="17" ry="13" fill="#111827"/>
  <path d="M102 136c7 21 43 21 52 0 2 25-10 42-26 42s-28-17-26-42Z" fill="#7F1D1D"/>
  <ellipse cx="128" cy="160" rx="12" ry="8" fill="#EF4444"/>
  <path d="M81 146c17-4 33 2 47 16 14-14 30-20 47-16-9 26-27 42-47 42s-38-16-47-42Z" fill="#FFF7ED"/>
  <rect x="102" y="176" width="54" height="13" rx="7" fill="#2563EB"/>
  <circle cx="128" cy="195" r="12" fill="#FACC15" stroke="#1D4ED8" stroke-width="5"/>
  <path d="M128 187l3 6 7 1-5 5 1 7-6-3-6 3 1-7-5-5 7-1 3-6Z" fill="#F59E0B"/>
  <rect x="146" y="162" width="38" height="38" rx="9" fill="#60A5FA" stroke="white" stroke-width="4"/>
  <path d="M156 188v-24h11c6 0 10 3 10 8 0 3-2 5-5 6 4 1 6 3 6 6 0 5-4 8-11 8h-11Zm7-15h4c2 0 3-1 3-2s-1-2-3-2h-4v4Zm0 10h5c2 0 3-1 3-3 0-1-1-2-4-2h-4v5Z" fill="white"/>
  <rect x="181" y="145" width="40" height="40" rx="10" fill="#A855F7" stroke="white" stroke-width="4"/>
  <path d="M190 176l9-23h7l9 23h-7l-1-4h-9l-1 4h-7Zm10-9h5l-2-7-3 7Z" fill="white"/>
  <rect x="180" y="187" width="40" height="40" rx="10" fill="#FACC15" stroke="white" stroke-width="4"/>
  <path d="M202 216c-8 0-14-5-14-13s6-13 14-13c5 0 9 2 11 6l-5 4c-1-2-3-4-6-4-4 0-7 3-7 7s3 7 7 7c3 0 5-1 7-4l5 4c-3 4-7 6-12 6Z" fill="white"/>
  <circle cx="84" cy="173" r="12" fill="#FFF7ED"/>
  <circle cx="180" cy="173" r="12" fill="#FFF7ED"/>
</svg>
